<mxfile host="app.diagrams.net" agent="Mozilla/5.0 (Windows NT 10.0; Win64; x64) AppleWebKit/537.36 (KHTML, like Gecko) Chrome/128.0.0.0 Safari/537.36" version="26.2.12">
  <diagram name="第 1 页" id="J8Wk3_4TfCrWuqvS08b0">
    <mxGraphModel dx="1428" dy="804" grid="1" gridSize="10" guides="1" tooltips="1" connect="1" arrows="1" fold="1" page="1" pageScale="1" pageWidth="827" pageHeight="1169" math="0" shadow="0">
      <root>
        <mxCell id="0" />
        <mxCell id="1" parent="0" />
        <mxCell id="4bmh01ieEDH_8RvU09yj-1" value="开始" style="whiteSpace=wrap;strokeWidth=2;" vertex="1" parent="1">
          <mxGeometry x="218" y="20" width="92" height="54" as="geometry" />
        </mxCell>
        <mxCell id="4bmh01ieEDH_8RvU09yj-2" value="解析命令行参数 `parse_args`" style="rounded=1;arcSize=20;strokeWidth=2" vertex="1" parent="1">
          <mxGeometry x="149" y="124" width="230" height="102" as="geometry" />
        </mxCell>
        <mxCell id="4bmh01ieEDH_8RvU09yj-3" value="设置环境和路径" style="rhombus;strokeWidth=2;whiteSpace=wrap;" vertex="1" parent="1">
          <mxGeometry x="181" y="276" width="166" height="166" as="geometry" />
        </mxCell>
        <mxCell id="4bmh01ieEDH_8RvU09yj-4" value="调用 `process_video` 函数" style="whiteSpace=wrap;strokeWidth=2;" vertex="1" parent="1">
          <mxGeometry x="134" y="492" width="260" height="78" as="geometry" />
        </mxCell>
        <mxCell id="4bmh01ieEDH_8RvU09yj-5" value="记录开始时间" style="rounded=1;arcSize=20;strokeWidth=2" vertex="1" parent="1">
          <mxGeometry x="201" y="620" width="126" height="54" as="geometry" />
        </mxCell>
        <mxCell id="4bmh01ieEDH_8RvU09yj-6" value="获取 2D 检测器 `get_detector_2d`" style="rounded=1;arcSize=20;strokeWidth=2" vertex="1" parent="1">
          <mxGeometry x="149" y="724" width="230" height="102" as="geometry" />
        </mxCell>
        <mxCell id="4bmh01ieEDH_8RvU09yj-7" value="是否提供 `input_npz`?" style="rhombus;strokeWidth=2;whiteSpace=wrap;" vertex="1" parent="1">
          <mxGeometry x="125" y="876" width="278" height="278" as="geometry" />
        </mxCell>
        <mxCell id="4bmh01ieEDH_8RvU09yj-8" value="运行 2D 检测器获取关键点" style="rounded=1;arcSize=20;strokeWidth=2" vertex="1" parent="1">
          <mxGeometry x="20" y="1227" width="218" height="54" as="geometry" />
        </mxCell>
        <mxCell id="4bmh01ieEDH_8RvU09yj-9" value="从 NPZ 文件加载 2D 关键点" style="rounded=1;arcSize=20;strokeWidth=2" vertex="1" parent="1">
          <mxGeometry x="288" y="1227" width="223" height="54" as="geometry" />
        </mxCell>
        <mxCell id="4bmh01ieEDH_8RvU09yj-10" value="预处理 2D 关键点 `normalize_screen_coordinates`" style="rounded=1;arcSize=20;strokeWidth=2" vertex="1" parent="1">
          <mxGeometry x="149" y="1331" width="230" height="102" as="geometry" />
        </mxCell>
        <mxCell id="4bmh01ieEDH_8RvU09yj-11" value="记录 2D 检测和预处理时间" style="rounded=1;arcSize=20;strokeWidth=2" vertex="1" parent="1">
          <mxGeometry x="155" y="1483" width="218" height="54" as="geometry" />
        </mxCell>
        <mxCell id="4bmh01ieEDH_8RvU09yj-12" value="加载 3D 模型 `TemporalModel`" style="rounded=1;arcSize=20;strokeWidth=2" vertex="1" parent="1">
          <mxGeometry x="149" y="1587" width="230" height="78" as="geometry" />
        </mxCell>
        <mxCell id="4bmh01ieEDH_8RvU09yj-13" value="CUDA 可用?" style="rhombus;strokeWidth=2;whiteSpace=wrap;" vertex="1" parent="1">
          <mxGeometry x="197" y="1715" width="135" height="135" as="geometry" />
        </mxCell>
        <mxCell id="4bmh01ieEDH_8RvU09yj-14" value="将模型移至 CUDA" style="rounded=1;arcSize=20;strokeWidth=2" vertex="1" parent="1">
          <mxGeometry x="248" y="1923" width="154" height="54" as="geometry" />
        </mxCell>
        <mxCell id="4bmh01ieEDH_8RvU09yj-15" value="加载模型检查点 `torch.load`" style="rounded=1;arcSize=20;strokeWidth=2" vertex="1" parent="1">
          <mxGeometry x="149" y="2027" width="230" height="102" as="geometry" />
        </mxCell>
        <mxCell id="4bmh01ieEDH_8RvU09yj-16" value="记录 3D 模型加载时间" style="rounded=1;arcSize=20;strokeWidth=2" vertex="1" parent="1">
          <mxGeometry x="171" y="2179" width="186" height="54" as="geometry" />
        </mxCell>
        <mxCell id="4bmh01ieEDH_8RvU09yj-17" value="运行 3D 估计流程 `run_3d_estimation_pipeline`" style="rounded=1;arcSize=20;strokeWidth=2" vertex="1" parent="1">
          <mxGeometry x="149" y="2283" width="230" height="102" as="geometry" />
        </mxCell>
        <mxCell id="4bmh01ieEDH_8RvU09yj-18" value="记录 3D 估计时间" style="rounded=1;arcSize=20;strokeWidth=2" vertex="1" parent="1">
          <mxGeometry x="187" y="2435" width="154" height="54" as="geometry" />
        </mxCell>
        <mxCell id="4bmh01ieEDH_8RvU09yj-19" value="后处理 3D 预测 `camera_to_world`" style="rounded=1;arcSize=20;strokeWidth=2" vertex="1" parent="1">
          <mxGeometry x="149" y="2539" width="230" height="102" as="geometry" />
        </mxCell>
        <mxCell id="4bmh01ieEDH_8RvU09yj-20" value="创建输出目录" style="rounded=1;arcSize=20;strokeWidth=2" vertex="1" parent="1">
          <mxGeometry x="201" y="2691" width="126" height="54" as="geometry" />
        </mxCell>
        <mxCell id="4bmh01ieEDH_8RvU09yj-21" value="保存 NPY 输出 `np.save`" style="rounded=1;arcSize=20;strokeWidth=2" vertex="1" parent="1">
          <mxGeometry x="149" y="2795" width="230" height="102" as="geometry" />
        </mxCell>
        <mxCell id="4bmh01ieEDH_8RvU09yj-22" value="保存 TXT 输出 `write_3d_point`" style="rounded=1;arcSize=20;strokeWidth=2" vertex="1" parent="1">
          <mxGeometry x="149" y="2947" width="230" height="102" as="geometry" />
        </mxCell>
        <mxCell id="4bmh01ieEDH_8RvU09yj-23" value="保存 BVH 输出 `write_standard_bvh`" style="rounded=1;arcSize=20;strokeWidth=2" vertex="1" parent="1">
          <mxGeometry x="149" y="3099" width="230" height="102" as="geometry" />
        </mxCell>
        <mxCell id="4bmh01ieEDH_8RvU09yj-24" value="记录后处理和保存时间" style="rounded=1;arcSize=20;strokeWidth=2" vertex="1" parent="1">
          <mxGeometry x="169" y="3251" width="190" height="54" as="geometry" />
        </mxCell>
        <mxCell id="4bmh01ieEDH_8RvU09yj-25" value="结束" style="whiteSpace=wrap;strokeWidth=2;" vertex="1" parent="1">
          <mxGeometry x="218" y="3355" width="92" height="54" as="geometry" />
        </mxCell>
        <mxCell id="4bmh01ieEDH_8RvU09yj-26" value="" style="curved=1;startArrow=none;endArrow=block;exitX=0.5;exitY=1;entryX=0.5;entryY=0;rounded=0;" edge="1" parent="1" source="4bmh01ieEDH_8RvU09yj-1" target="4bmh01ieEDH_8RvU09yj-2">
          <mxGeometry relative="1" as="geometry">
            <Array as="points" />
          </mxGeometry>
        </mxCell>
        <mxCell id="4bmh01ieEDH_8RvU09yj-27" value="" style="curved=1;startArrow=none;endArrow=block;exitX=0.5;exitY=1;entryX=0.5;entryY=0;rounded=0;" edge="1" parent="1" source="4bmh01ieEDH_8RvU09yj-2" target="4bmh01ieEDH_8RvU09yj-3">
          <mxGeometry relative="1" as="geometry">
            <Array as="points" />
          </mxGeometry>
        </mxCell>
        <mxCell id="4bmh01ieEDH_8RvU09yj-28" value="" style="curved=1;startArrow=none;endArrow=block;exitX=0.5;exitY=1;entryX=0.5;entryY=0;rounded=0;" edge="1" parent="1" source="4bmh01ieEDH_8RvU09yj-3" target="4bmh01ieEDH_8RvU09yj-4">
          <mxGeometry relative="1" as="geometry">
            <Array as="points" />
          </mxGeometry>
        </mxCell>
        <mxCell id="4bmh01ieEDH_8RvU09yj-29" value="" style="curved=1;startArrow=none;endArrow=block;exitX=0.5;exitY=1;entryX=0.5;entryY=0;rounded=0;" edge="1" parent="1" source="4bmh01ieEDH_8RvU09yj-4" target="4bmh01ieEDH_8RvU09yj-5">
          <mxGeometry relative="1" as="geometry">
            <Array as="points" />
          </mxGeometry>
        </mxCell>
        <mxCell id="4bmh01ieEDH_8RvU09yj-30" value="" style="curved=1;startArrow=none;endArrow=block;exitX=0.5;exitY=1;entryX=0.5;entryY=0;rounded=0;" edge="1" parent="1" source="4bmh01ieEDH_8RvU09yj-5" target="4bmh01ieEDH_8RvU09yj-6">
          <mxGeometry relative="1" as="geometry">
            <Array as="points" />
          </mxGeometry>
        </mxCell>
        <mxCell id="4bmh01ieEDH_8RvU09yj-31" value="" style="curved=1;startArrow=none;endArrow=block;exitX=0.5;exitY=1;entryX=0.5;entryY=0;rounded=0;" edge="1" parent="1" source="4bmh01ieEDH_8RvU09yj-6" target="4bmh01ieEDH_8RvU09yj-7">
          <mxGeometry relative="1" as="geometry">
            <Array as="points" />
          </mxGeometry>
        </mxCell>
        <mxCell id="4bmh01ieEDH_8RvU09yj-32" value="否" style="curved=1;startArrow=none;endArrow=block;exitX=0.12;exitY=1;entryX=0.5;entryY=0;rounded=0;" edge="1" parent="1" source="4bmh01ieEDH_8RvU09yj-7" target="4bmh01ieEDH_8RvU09yj-8">
          <mxGeometry relative="1" as="geometry">
            <Array as="points">
              <mxPoint x="129" y="1191" />
            </Array>
          </mxGeometry>
        </mxCell>
        <mxCell id="4bmh01ieEDH_8RvU09yj-33" value="是" style="curved=1;startArrow=none;endArrow=block;exitX=0.89;exitY=1;entryX=0.5;entryY=0;rounded=0;" edge="1" parent="1" source="4bmh01ieEDH_8RvU09yj-7" target="4bmh01ieEDH_8RvU09yj-9">
          <mxGeometry relative="1" as="geometry">
            <Array as="points">
              <mxPoint x="400" y="1191" />
            </Array>
          </mxGeometry>
        </mxCell>
        <mxCell id="4bmh01ieEDH_8RvU09yj-34" value="" style="curved=1;startArrow=none;endArrow=block;exitX=0.5;exitY=1;entryX=0.11;entryY=0;rounded=0;" edge="1" parent="1" source="4bmh01ieEDH_8RvU09yj-8" target="4bmh01ieEDH_8RvU09yj-10">
          <mxGeometry relative="1" as="geometry">
            <Array as="points">
              <mxPoint x="129" y="1306" />
            </Array>
          </mxGeometry>
        </mxCell>
        <mxCell id="4bmh01ieEDH_8RvU09yj-35" value="" style="curved=1;startArrow=none;endArrow=block;exitX=0.5;exitY=1;entryX=0.9;entryY=0;rounded=0;" edge="1" parent="1" source="4bmh01ieEDH_8RvU09yj-9" target="4bmh01ieEDH_8RvU09yj-10">
          <mxGeometry relative="1" as="geometry">
            <Array as="points">
              <mxPoint x="400" y="1306" />
            </Array>
          </mxGeometry>
        </mxCell>
        <mxCell id="4bmh01ieEDH_8RvU09yj-36" value="" style="curved=1;startArrow=none;endArrow=block;exitX=0.5;exitY=1;entryX=0.5;entryY=0;rounded=0;" edge="1" parent="1" source="4bmh01ieEDH_8RvU09yj-10" target="4bmh01ieEDH_8RvU09yj-11">
          <mxGeometry relative="1" as="geometry">
            <Array as="points" />
          </mxGeometry>
        </mxCell>
        <mxCell id="4bmh01ieEDH_8RvU09yj-37" value="" style="curved=1;startArrow=none;endArrow=block;exitX=0.5;exitY=1;entryX=0.5;entryY=0;rounded=0;" edge="1" parent="1" source="4bmh01ieEDH_8RvU09yj-11" target="4bmh01ieEDH_8RvU09yj-12">
          <mxGeometry relative="1" as="geometry">
            <Array as="points" />
          </mxGeometry>
        </mxCell>
        <mxCell id="4bmh01ieEDH_8RvU09yj-38" value="" style="curved=1;startArrow=none;endArrow=block;exitX=0.5;exitY=1;entryX=0.5;entryY=0;rounded=0;" edge="1" parent="1" source="4bmh01ieEDH_8RvU09yj-12" target="4bmh01ieEDH_8RvU09yj-13">
          <mxGeometry relative="1" as="geometry">
            <Array as="points" />
          </mxGeometry>
        </mxCell>
        <mxCell id="4bmh01ieEDH_8RvU09yj-39" value="是" style="curved=1;startArrow=none;endArrow=block;exitX=0.79;exitY=1;entryX=0.5;entryY=0;rounded=0;" edge="1" parent="1" source="4bmh01ieEDH_8RvU09yj-13" target="4bmh01ieEDH_8RvU09yj-14">
          <mxGeometry relative="1" as="geometry">
            <Array as="points">
              <mxPoint x="325" y="1887" />
            </Array>
          </mxGeometry>
        </mxCell>
        <mxCell id="4bmh01ieEDH_8RvU09yj-40" value="否" style="curved=1;startArrow=none;endArrow=block;exitX=0.2;exitY=1;entryX=0.32;entryY=0;rounded=0;" edge="1" parent="1" source="4bmh01ieEDH_8RvU09yj-13" target="4bmh01ieEDH_8RvU09yj-15">
          <mxGeometry relative="1" as="geometry">
            <Array as="points">
              <mxPoint x="203" y="1887" />
              <mxPoint x="203" y="2002" />
            </Array>
          </mxGeometry>
        </mxCell>
        <mxCell id="4bmh01ieEDH_8RvU09yj-41" value="" style="curved=1;startArrow=none;endArrow=block;exitX=0.5;exitY=1;entryX=0.68;entryY=0;rounded=0;" edge="1" parent="1" source="4bmh01ieEDH_8RvU09yj-14" target="4bmh01ieEDH_8RvU09yj-15">
          <mxGeometry relative="1" as="geometry">
            <Array as="points">
              <mxPoint x="325" y="2002" />
            </Array>
          </mxGeometry>
        </mxCell>
        <mxCell id="4bmh01ieEDH_8RvU09yj-42" value="" style="curved=1;startArrow=none;endArrow=block;exitX=0.5;exitY=1;entryX=0.5;entryY=0;rounded=0;" edge="1" parent="1" source="4bmh01ieEDH_8RvU09yj-15" target="4bmh01ieEDH_8RvU09yj-16">
          <mxGeometry relative="1" as="geometry">
            <Array as="points" />
          </mxGeometry>
        </mxCell>
        <mxCell id="4bmh01ieEDH_8RvU09yj-43" value="" style="curved=1;startArrow=none;endArrow=block;exitX=0.5;exitY=1;entryX=0.5;entryY=0;rounded=0;" edge="1" parent="1" source="4bmh01ieEDH_8RvU09yj-16" target="4bmh01ieEDH_8RvU09yj-17">
          <mxGeometry relative="1" as="geometry">
            <Array as="points" />
          </mxGeometry>
        </mxCell>
        <mxCell id="4bmh01ieEDH_8RvU09yj-44" value="" style="curved=1;startArrow=none;endArrow=block;exitX=0.5;exitY=1;entryX=0.5;entryY=0;rounded=0;" edge="1" parent="1" source="4bmh01ieEDH_8RvU09yj-17" target="4bmh01ieEDH_8RvU09yj-18">
          <mxGeometry relative="1" as="geometry">
            <Array as="points" />
          </mxGeometry>
        </mxCell>
        <mxCell id="4bmh01ieEDH_8RvU09yj-45" value="" style="curved=1;startArrow=none;endArrow=block;exitX=0.5;exitY=1;entryX=0.5;entryY=0;rounded=0;" edge="1" parent="1" source="4bmh01ieEDH_8RvU09yj-18" target="4bmh01ieEDH_8RvU09yj-19">
          <mxGeometry relative="1" as="geometry">
            <Array as="points" />
          </mxGeometry>
        </mxCell>
        <mxCell id="4bmh01ieEDH_8RvU09yj-46" value="" style="curved=1;startArrow=none;endArrow=block;exitX=0.5;exitY=1;entryX=0.5;entryY=0;rounded=0;" edge="1" parent="1" source="4bmh01ieEDH_8RvU09yj-19" target="4bmh01ieEDH_8RvU09yj-20">
          <mxGeometry relative="1" as="geometry">
            <Array as="points" />
          </mxGeometry>
        </mxCell>
        <mxCell id="4bmh01ieEDH_8RvU09yj-47" value="" style="curved=1;startArrow=none;endArrow=block;exitX=0.5;exitY=1;entryX=0.5;entryY=0;rounded=0;" edge="1" parent="1" source="4bmh01ieEDH_8RvU09yj-20" target="4bmh01ieEDH_8RvU09yj-21">
          <mxGeometry relative="1" as="geometry">
            <Array as="points" />
          </mxGeometry>
        </mxCell>
        <mxCell id="4bmh01ieEDH_8RvU09yj-48" value="" style="curved=1;startArrow=none;endArrow=block;exitX=0.5;exitY=1;entryX=0.5;entryY=0;rounded=0;" edge="1" parent="1" source="4bmh01ieEDH_8RvU09yj-21" target="4bmh01ieEDH_8RvU09yj-22">
          <mxGeometry relative="1" as="geometry">
            <Array as="points" />
          </mxGeometry>
        </mxCell>
        <mxCell id="4bmh01ieEDH_8RvU09yj-49" value="" style="curved=1;startArrow=none;endArrow=block;exitX=0.5;exitY=1;entryX=0.5;entryY=0;rounded=0;" edge="1" parent="1" source="4bmh01ieEDH_8RvU09yj-22" target="4bmh01ieEDH_8RvU09yj-23">
          <mxGeometry relative="1" as="geometry">
            <Array as="points" />
          </mxGeometry>
        </mxCell>
        <mxCell id="4bmh01ieEDH_8RvU09yj-50" value="" style="curved=1;startArrow=none;endArrow=block;exitX=0.5;exitY=1;entryX=0.5;entryY=0;rounded=0;" edge="1" parent="1" source="4bmh01ieEDH_8RvU09yj-23" target="4bmh01ieEDH_8RvU09yj-24">
          <mxGeometry relative="1" as="geometry">
            <Array as="points" />
          </mxGeometry>
        </mxCell>
        <mxCell id="4bmh01ieEDH_8RvU09yj-51" value="" style="curved=1;startArrow=none;endArrow=block;exitX=0.5;exitY=1;entryX=0.5;entryY=0;rounded=0;" edge="1" parent="1" source="4bmh01ieEDH_8RvU09yj-24" target="4bmh01ieEDH_8RvU09yj-25">
          <mxGeometry relative="1" as="geometry">
            <Array as="points" />
          </mxGeometry>
        </mxCell>
      </root>
    </mxGraphModel>
  </diagram>
</mxfile>
